<?xml version="1.0" encoding="utf-8"?>
<!-- Generator: Adobe Illustrator 19.0.0, SVG Export Plug-In . SVG Version: 6.00 Build 0)  -->
<svg version="1.1" id="Calque_1" xmlns="http://www.w3.org/2000/svg" xmlns:xlink="http://www.w3.org/1999/xlink" x="0px" y="0px"
	 width="220px" height="150px" viewBox="-401 438 220 150" style="enable-background:new -401 438 220 150;" xml:space="preserve">
<style type="text/css">
	.st0{fill:#0046FE;}
</style>
<g>
	<g>
		<path class="st0" d="M-285.4,519.9c-4.5,0-7.5-3.6-7.5-8.3c0-4.7,3.2-8.3,7.5-8.3s7.5,3.4,7.5,8.3
			C-277.8,516.4-281.1,519.9-285.4,519.9 M-277.8,496.9v3.1h-1.1l-0.2-0.2c-1.8-1.8-3.8-3.7-8.3-3.7c-7.4,0-13.3,6.7-13.3,15.4
			c0,8.7,6,15.4,13.7,15.4c4.5,0,6.6-1.8,7.9-3.4l0.2-0.2h1.1v6c0,2.7-2.1,4.8-4.8,4.8h-10v7.3h11c6.3,0,11.4-5.2,11.4-11.4v-33.2
			L-277.8,496.9L-277.8,496.9z"/>
		<path class="st0" d="M-319.4,527.6c-8.8,0-15.3-6.4-15.3-15.4c0-8.8,6.4-15.4,15-15.4c8.6,0,14.7,6.3,14.7,15.4v1.8h-21.9v0.4
			c0,4,3,6.7,7.3,6.7c3.2,0,5.6-1.3,6.7-3.6l6.7,1.6C-307.9,524.4-312.8,527.6-319.4,527.6 M-319.4,502.9c-4.1,0-6.7,2.9-7.2,5.7
			v0.4h14.3v-0.4C-312.9,505.3-315.9,502.9-319.4,502.9"/>
		<path class="st0" d="M-263.8,498.2h7.5v28.5h-7.5V498.2z M-259.9,493.4c-2.5,0-4.6-1.8-4.6-4.5s2-4.5,4.6-4.5c2.5,0,4.6,2,4.6,4.5
			C-255.4,491.5-257.4,493.4-259.9,493.4"/>
		<path class="st0" d="M-237.7,527.7c-7.7,0-13.7-6.8-13.7-15.4s5.9-15.4,13.3-15.4c3.6,0,6.3,1.3,8.3,3.7l0.2,0.2h1.1V485h7.5V527
			h-7.5v-2.9h-1.3l-0.2,0.2C-231.6,526.6-234.3,527.7-237.7,527.7 M-236.1,504c-4.5,0-7.5,3.4-7.5,8.3c0,4.9,3.3,8.3,7.7,8.3
			c4.3,0,7.5-3.6,7.5-8.3C-228.4,507.4-231.6,504-236.1,504"/>
		<path class="st0" d="M-346.1,527.5c-8.6,0-14.9-6.3-14.9-15.1c0-9,6.6-15.4,15.6-15.4c3.2,0,5.4,0.6,8.7,2l-2.4,6.1
			c-2.1-0.9-3.6-1.3-5.4-1.3c-4.8,0-8.6,2.9-8.6,8.6s3.7,8.6,8.7,8.6c1.8,0,3.4-0.4,5.4-1.6l2.5,5.4
			C-339.7,526.6-342.6,527.5-346.1,527.5"/>
	</g>
</g>
</svg>
