<?xml version="1.0" encoding="utf-8"?>
<!-- Generator: Adobe Illustrator 22.1.0, SVG Export Plug-In . SVG Version: 6.00 Build 0)  -->
<svg version="1.1" id="Layer_1" xmlns="http://www.w3.org/2000/svg" xmlns:xlink="http://www.w3.org/1999/xlink" x="0px" y="0px"
	 width="60px" height="60px" viewBox="0 0 60 60" style="enable-background:new 0 0 60 60;" xml:space="preserve">
<style type="text/css">
	.st0{fill:#0077B7;}
</style>
<path class="st0" d="M54.6,0H5.4C2.4,0,0,2.4,0,5.4v49.1c0,3,2.4,5.4,5.4,5.4h49.1c3,0,5.4-2.4,5.4-5.4V5.4C60,2.4,57.6,0,54.6,0z
	 M18.6,51.8c0,0.9-0.7,1.6-1.6,1.6h-6.7c-0.9,0-1.6-0.7-1.6-1.6V23.6c0-0.9,0.7-1.6,1.6-1.6H17c0.9,0,1.6,0.7,1.6,1.6V51.8z
	 M13.6,19.4c-3.5,0-6.4-2.9-6.4-6.4s2.9-6.4,6.4-6.4S20,9.5,20,13S17.2,19.4,13.6,19.4z M53.7,51.9c0,0.8-0.7,1.5-1.5,1.5H45
	c-0.8,0-1.5-0.7-1.5-1.5V38.7c0-2,0.6-8.6-5.2-8.6c-4.4,0-5.3,4.6-5.5,6.6v15.2c0,0.8-0.7,1.5-1.5,1.5h-7c-0.8,0-1.5-0.7-1.5-1.5
	V23.5c0-0.8,0.7-1.5,1.5-1.5h7c0.8,0,1.5,0.7,1.5,1.5V26c1.6-2.5,4.1-4.4,9.3-4.4c11.6,0,11.5,10.8,11.5,16.7L53.7,51.9L53.7,51.9z"
	/>
</svg>
